<svg xmlns="http://www.w3.org/2000/svg" enable-background="new 0 0 64 64" viewBox="0 0 64 64"><path d="M32.23,46.57h-4.49c-0.26,0-0.51-0.1-0.69-0.29c-0.18-0.18-0.28-0.43-0.28-0.69l0.17-17.91l-6.22,0.16
					c-0.23,0.01-0.51-0.09-0.7-0.27c-0.19-0.18-0.29-0.43-0.29-0.69v-4.49c0-0.26,0.11-0.51,0.29-0.69c0.19-0.18,0.41-0.29,0.7-0.28
					l6.2,0.15l-0.15-5.36c-0.01-0.26,0.09-0.52,0.27-0.7c0.18-0.19,0.43-0.29,0.7-0.29h4.49c0.26,0,0.51,0.11,0.7,0.29
					c0.18,0.19,0.28,0.44,0.27,0.7l-0.15,5.36l6.2-0.15c0.28-0.03,0.51,0.09,0.7,0.28c0.19,0.18,0.29,0.43,0.29,0.69v4.49
					c0,0.26-0.11,0.51-0.29,0.69c-0.19,0.18-0.47,0.28-0.7,0.27l-6.22-0.16l0.17,17.91c0,0.26-0.1,0.51-0.28,0.69
					C32.74,46.47,32.49,46.57,32.23,46.57z M28.72,44.63h2.53l-0.17-17.93c0-0.26,0.1-0.52,0.29-0.7c0.19-0.18,0.47-0.29,0.7-0.28
					l6.23,0.16v-2.5l-6.23,0.15c-0.31,0.02-0.52-0.1-0.71-0.28c-0.19-0.19-0.29-0.45-0.28-0.71l0.15-5.38h-2.5l0.15,5.38
					c0.01,0.27-0.09,0.52-0.28,0.71c-0.19,0.19-0.42,0.31-0.71,0.28l-6.23-0.15v2.5l6.23-0.16c0.22-0.02,0.52,0.09,0.7,0.28
					c0.19,0.18,0.29,0.44,0.29,0.7L28.72,44.63z"/><path d="M10.66,59.47c-0.54,0-0.97-0.43-0.97-0.97V22.6C9.7,11.41,18.8,2.3,29.99,2.3c5.43,0,10.53,2.11,14.35,5.95
			c3.83,3.83,5.94,8.93,5.94,14.35v33.5c0,0.54-0.43,0.97-0.97,0.97c-0.54,0-0.97-0.43-0.97-0.97V22.6c0-4.9-1.91-9.51-5.38-12.98
			c-3.46-3.47-8.07-5.38-12.98-5.38c-10.12,0-18.35,8.23-18.35,18.35v35.9C11.63,59.04,11.2,59.47,10.66,59.47z"/><path d="M54.96,59.85c-0.54,0-0.97-0.43-0.97-0.97V22.6c0-4.9-1.91-9.51-5.38-12.98c-3.47-3.47-8.08-5.38-12.98-5.38
			c-0.9,0-1.79,0.07-2.66,0.2c-0.54,0.08-1.02-0.28-1.11-0.81c-0.08-0.53,0.28-1.02,0.81-1.11c0.96-0.15,1.95-0.22,2.95-0.22
			c5.42,0,10.52,2.11,14.35,5.94c3.83,3.83,5.94,8.93,5.94,14.35v36.28C55.93,59.42,55.5,59.85,54.96,59.85z"/><path d="M.97 61.69c-.33 0-.64-.16-.83-.46C-.14 60.78 0 60.18.46 59.9l5.92-3.64c.26-.16.57-.19.85-.08l3.34 1.26 8.07-4.95c.22-.13.48-.18.73-.12.25.06.47.22.6.44l2.4 3.96 5.75-3.42c.34-.2.76-.18 1.07.05l3.43 2.53 5.45-1.9c.23-.08.48-.07.7.02l6.41 2.73 6.16-2.6c.39-.17.84-.06 1.12.26l2.64 3.11 3.7-2.87c.21-.16.48-.23.74-.19.26.04.5.19.65.41l3.63 5.28c.3.44.19 1.04-.25 1.35-.44.3-1.04.19-1.35-.25l-3.05-4.44-3.62 2.81c-.41.32-1 .26-1.33-.14l-2.78-3.27-5.88 2.49c-.24.1-.52.1-.76 0l-6.44-2.74-5.58 1.95c-.3.11-.64.05-.9-.13l-3.33-2.46-6.03 3.58c-.46.27-1.05.12-1.32-.33l-2.39-3.94-7.64 4.69c-.26.16-.57.19-.85.08l-3.33-1.26-5.51 3.39C1.32 61.65 1.14 61.69.97 61.69zM41.86 39.4c-.19 0-.38-.06-.55-.17-.44-.3-.55-.91-.25-1.35l2.86-4.15c.25-.36.72-.51 1.13-.36l4 1.45 2.77-2.88c.3-.31.76-.39 1.14-.19l2.45 1.26c.48.24.66.83.42 1.31-.24.48-.83.66-1.31.42l-1.8-.93-2.7 2.81c-.27.28-.67.37-1.03.24l-3.88-1.41-2.43 3.53C42.48 39.25 42.17 39.4 41.86 39.4zM22.86 15.49c-.06 0-.11 0-.17-.02l-3.83-.69c-.52-.09-.87-.6-.78-1.12l.28-1.6-4.13.51c-.54.06-1.02-.31-1.08-.84-.07-.53.31-1.02.84-1.08l5.43-.67c.31-.03.61.07.82.29.21.22.3.53.25.83l-.34 1.94 2.88.52c.53.1.88.6.78 1.13C23.73 15.16 23.32 15.49 22.86 15.49z"/></svg>